<svg width="7" height="12" viewBox="0 0 7 12" fill="none" xmlns="http://www.w3.org/2000/svg">
<path d="M2.7 0.1C2.7 0.200001 2.6 0.2 2.6 0.3L2.6 8.2L0.2 8.2C0.14847 8.20451 0.100176 8.22702 0.0636003 8.2636C0.0270244 8.30018 0.00450581 8.34847 4.29296e-08 8.4L3.93521e-08 8.7L3.3 11.9C3.3519 11.9571 3.42321 11.9927 3.5 12C3.6 12 3.6 12 3.7 11.9L6.9 8.6C7 8.6 7 8.5 7 8.4C6.99549 8.34847 6.97298 8.30018 6.9364 8.2636C6.89982 8.22702 6.85153 8.20451 6.8 8.2L4.4 8.2L4.4 0.3C4.4 0.2 4.4 0.200001 4.3 0.1C4.2 5.00845e-08 4.2 5.00845e-08 4.1 4.8892e-08L2.9 3.45822e-08C2.8 3.33897e-08 2.8 3.33897e-08 2.7 0.1Z" fill="#B25B5B"/>
</svg>
