<svg width="7" height="12" viewBox="0 0 7 12" fill="none" xmlns="http://www.w3.org/2000/svg">
<path d="M4.3 11.9C4.3 11.8 4.4 11.8 4.4 11.7L4.4 3.8L6.8 3.8C6.85153 3.79549 6.89982 3.77298 6.9364 3.7364C6.97298 3.69982 6.99549 3.65153 7 3.6L7 3.3L3.7 0.0999999C3.6481 0.0429463 3.57679 0.00729144 3.5 -1.5299e-07C3.4 -1.57361e-07 3.4 -1.57361e-07 3.3 0.0999998L0.0999998 3.4C-1.48619e-07 3.4 -1.5299e-07 3.5 -1.57361e-07 3.6C0.00450547 3.65153 0.0270241 3.69982 0.0635999 3.7364C0.100176 3.77298 0.14847 3.79549 0.2 3.8L2.6 3.8L2.6 11.7C2.6 11.8 2.6 11.8 2.7 11.9C2.8 12 2.8 12 2.9 12L4.1 12C4.2 12 4.2 12 4.3 11.9Z" fill="#6EAD63"/>
</svg>
