<svg width="46" height="46" viewBox="0 0 46 46" fill="none" xmlns="http://www.w3.org/2000/svg">
<path d="M22.7626 45.4843C35.3206 45.4843 45.5009 35.3023 45.5009 22.7422C45.5009 10.182 35.3206 0 22.7626 0C10.2047 0 0.0244141 10.182 0.0244141 22.7422C0.0244141 35.3023 10.2047 45.4843 22.7626 45.4843Z" fill="#FFF4E5"/>
<path d="M22.7637 13.1663C20.8699 13.1663 19.0186 13.7279 17.444 14.7803C15.8694 15.8326 14.6421 17.3283 13.9174 19.0782C13.1926 20.8282 13.003 22.7538 13.3725 24.6115C13.7419 26.4693 14.6539 28.1757 15.993 29.5151C17.3321 30.8544 19.0383 31.7665 20.8957 32.136C22.7531 32.5056 24.6784 32.3159 26.428 31.5911C28.1777 30.8662 29.6731 29.6387 30.7253 28.0638C31.7774 26.4889 32.339 24.6373 32.339 22.7432C32.3319 20.2054 31.3208 17.7736 29.5266 15.9791C27.7324 14.1846 25.3011 13.1734 22.7637 13.1663V13.1663ZM22.7637 27.5316C22.604 27.5412 22.4441 27.5168 22.2946 27.4601C22.145 27.4033 22.0092 27.3154 21.8961 27.2023C21.783 27.0892 21.6951 26.9533 21.6384 26.8037C21.5816 26.6541 21.5572 26.4942 21.5668 26.3345C21.5572 26.1748 21.5816 26.0149 21.6384 25.8653C21.6951 25.7157 21.783 25.5798 21.8961 25.4667C22.0092 25.3536 22.145 25.2657 22.2946 25.2089C22.4441 25.1522 22.604 25.1278 22.7637 25.1374C22.9234 25.1278 23.0833 25.1522 23.2329 25.2089C23.3824 25.2657 23.5183 25.3536 23.6314 25.4667C23.7445 25.5798 23.8323 25.7157 23.8891 25.8653C23.9459 26.0149 23.9702 26.1748 23.9606 26.3345C23.9702 26.4942 23.9459 26.6541 23.8891 26.8037C23.8323 26.9533 23.7445 27.0892 23.6314 27.2023C23.5183 27.3154 23.3824 27.4033 23.2329 27.4601C23.0833 27.5168 22.9234 27.5412 22.7637 27.5316ZM23.9606 23.9403H21.5668V17.9547H23.9606V23.9403Z" fill="#FFCA83"/>
</svg>
