<svg width="23" height="22" viewBox="0 0 23 22" fill="none" xmlns="http://www.w3.org/2000/svg">
<path d="M18.2769 4.52441L19.2769 3.59485C18.9446 3.24034 18.587 2.90986 18.2069 2.60596L17.3369 3.66408C17.6713 3.92754 17.9855 4.21511 18.2769 4.52441Z" fill="#7C6D63"/>
<path d="M19.7569 6.5813L20.9769 5.94832C20.7475 5.52337 20.4903 5.1137 20.2069 4.72192L19.0469 5.50326C19.3063 5.84743 19.5434 6.2075 19.7569 6.5813Z" fill="#7C6D63"/>
<path d="M21.577 7.27169L20.287 7.7462C21.074 9.86335 21.0766 12.1877 20.2945 14.3066C19.5123 16.4254 17.996 18.2018 16.0146 19.3204C14.0333 20.4389 11.7151 20.8272 9.47162 20.4164C7.22812 20.0056 5.20443 18.8223 3.7598 17.0764C2.31516 15.3305 1.54303 13.1351 1.58046 10.8799C1.6179 8.62464 2.46249 6.45545 3.9643 4.75739C5.46611 3.05933 7.52798 1.94224 9.78391 1.60444C12.0398 1.26663 14.3439 1.72995 16.287 2.91216L17.047 1.75554C14.8309 0.410705 12.2045 -0.114549 9.6339 0.272989C7.06327 0.660526 4.71464 1.93579 3.00476 3.8725C1.29489 5.8092 0.334349 8.2821 0.293589 10.8524C0.252828 13.4227 1.13448 15.9241 2.78211 17.9128C4.42973 19.9016 6.73677 21.249 9.29385 21.716C11.8509 22.183 14.4927 21.7394 16.7503 20.4639C19.008 19.1884 20.7356 17.1635 21.6265 14.7484C22.5174 12.3334 22.514 9.68449 21.617 7.27169H21.577Z" fill="#7C6D63"/>
<path d="M13.297 18.5112V16.4353C13.9057 16.3734 14.4818 16.1332 14.9513 15.7453C15.4209 15.3575 15.7625 14.8398 15.9323 14.2586C16.1022 13.6775 16.0924 13.0594 15.9044 12.4838C15.7163 11.9082 15.3585 11.4013 14.877 11.0281C15.3585 10.6549 15.7163 10.148 15.9044 9.57233C16.0924 8.99671 16.1022 8.37867 15.9323 7.79753C15.7625 7.21639 15.4209 6.69868 14.9513 6.31083C14.4818 5.92298 13.9057 5.6827 13.297 5.62083V3.54492H11.927V5.58129H10.547V3.54492H9.16698V5.58129H6.41699V16.4551H9.16698V18.4915H10.547V16.4749H11.927V18.5112H13.297ZM7.79699 6.94546H12.957C13.1828 6.94546 13.4065 6.98944 13.6152 7.07488C13.8239 7.16033 14.0135 7.28557 14.1732 7.44345C14.3329 7.60134 14.4596 7.78877 14.546 7.99506C14.6325 8.20135 14.677 8.42244 14.677 8.64572C14.677 8.86901 14.6325 9.0901 14.546 9.29639C14.4596 9.50268 14.3329 9.69011 14.1732 9.848C14.0135 10.0059 13.8239 10.1311 13.6152 10.2166C13.4065 10.302 13.1828 10.346 12.957 10.346H7.79699V6.94546ZM7.79699 15.1107V11.7102H12.957C13.4131 11.7102 13.8506 11.8893 14.1732 12.2082C14.4957 12.527 14.677 12.9595 14.677 13.4104C14.677 13.8614 14.4957 14.2938 14.1732 14.6127C13.8506 14.9316 13.4131 15.1107 12.957 15.1107H7.79699Z" fill="#7C6D63"/>
</svg>
