<svg width="19" height="14" viewBox="0 0 19 14" fill="none" xmlns="http://www.w3.org/2000/svg">
<path d="M18.08 13.56C18.08 13.6178 18.0686 13.675 18.0465 13.7284C18.0244 13.7818 17.992 13.8303 17.9511 13.8711C17.9103 13.912 17.8618 13.9444 17.8084 13.9665C17.755 13.9886 17.6978 14 17.64 14H0.44C0.323305 14 0.211389 13.9536 0.128873 13.8711C0.046357 13.7886 0 13.6767 0 13.56C0.00261325 13.445 0.0501214 13.3357 0.132356 13.2553C0.21459 13.1749 0.325017 13.13 0.44 13.13H17.64C17.755 13.13 17.8654 13.1749 17.9476 13.2553C18.0299 13.3357 18.0774 13.445 18.08 13.56Z" fill="#ED9B64"/>
<path d="M4.08988 0H0.879883V12.54H4.08988V0Z" fill="#ED9B64"/>
<path d="M8.46 2.63H5.25V12.55H8.46V2.63Z" fill="#ED9B64"/>
<path d="M12.8399 5.54H9.62988V12.54H12.8399V5.54Z" fill="#ED9B64"/>
<path d="M17.21 7.88H14V12.55H17.21V7.88Z" fill="#ED9B64"/>
</svg>
