<svg width="18" height="21" viewBox="0 0 18 21" fill="none" xmlns="http://www.w3.org/2000/svg">
<g clip-path="url(#clip0)">
<path d="M13.3067 20.9532H2.21732C1.82052 20.9532 1.43998 20.7956 1.1594 20.5149C0.878819 20.2343 0.721191 19.8537 0.721191 19.4568L0.721191 5.01066C0.721191 4.61379 0.878819 4.23318 1.1594 3.95255C1.43998 3.67192 1.82052 3.51427 2.21732 3.51427H3.62568C3.70504 3.51427 3.78115 3.5458 3.83727 3.60192C3.89338 3.65805 3.92491 3.73417 3.92491 3.81355C3.92491 3.89292 3.89338 3.96904 3.83727 4.02517C3.78115 4.08129 3.70504 4.11282 3.62568 4.11282H2.21732C1.97924 4.11282 1.75092 4.20742 1.58257 4.37579C1.41422 4.54417 1.31964 4.77254 1.31964 5.01066V19.4598C1.31964 19.6979 1.41422 19.9263 1.58257 20.0947C1.75092 20.2631 1.97924 20.3577 2.21732 20.3577H13.3067C13.5447 20.3577 13.7731 20.2631 13.9414 20.0947C14.1098 19.9263 14.2043 19.6979 14.2043 19.4598V18.0452C14.2043 17.9659 14.2359 17.8897 14.292 17.8336C14.3481 17.7775 14.4242 17.746 14.5036 17.746C14.5829 17.746 14.659 17.7775 14.7151 17.8336C14.7713 17.8897 14.8028 17.9659 14.8028 18.0452V19.4598C14.8028 19.8567 14.6452 20.2373 14.3646 20.5179C14.084 20.7986 13.7035 20.9562 13.3067 20.9562V20.9532Z" fill="#AAB0BB"/>
<path d="M16.293 17.7479H5.20365C4.80685 17.7479 4.42631 17.5903 4.14573 17.3097C3.86515 17.029 3.70752 16.6484 3.70752 16.2515V1.80837C3.70752 1.41151 3.86515 1.03089 4.14573 0.750264C4.42631 0.469636 4.80685 0.311981 5.20365 0.311981L13.3277 0.311981C13.407 0.311981 13.4831 0.343512 13.5392 0.399638C13.5954 0.455763 13.6269 0.531886 13.6269 0.61126C13.6269 0.690633 13.5954 0.766756 13.5392 0.822881C13.4831 0.879007 13.407 0.910538 13.3277 0.910538H5.20365C5.08577 0.910538 4.96904 0.933761 4.86012 0.978881C4.75121 1.024 4.65225 1.09014 4.5689 1.17351C4.48554 1.25688 4.41942 1.35586 4.3743 1.46479C4.32919 1.57372 4.30597 1.69047 4.30597 1.80837V16.2545C4.30597 16.3724 4.32919 16.4892 4.3743 16.5981C4.41942 16.7071 4.48554 16.806 4.5689 16.8894C4.65225 16.9728 4.75121 17.0389 4.86012 17.084C4.96904 17.1292 5.08577 17.1524 5.20365 17.1524H16.293C16.5311 17.1524 16.7594 17.0578 16.9277 16.8894C17.0961 16.721 17.1907 16.4927 17.1907 16.2545V4.88795C17.1907 4.80857 17.2222 4.73245 17.2783 4.67633C17.3344 4.6202 17.4105 4.58867 17.4899 4.58867C17.5693 4.58867 17.6454 4.6202 17.7015 4.67633C17.7576 4.73245 17.7891 4.80857 17.7891 4.88795V16.2545C17.7891 16.6514 17.6315 17.032 17.3509 17.3126C17.0703 17.5933 16.6898 17.7509 16.293 17.7509V17.7479Z" fill="#AAB0BB"/>
<path d="M17.4879 5.18551H13.3246C13.2453 5.18551 13.1691 5.15398 13.113 5.09785C13.0569 5.04173 13.0254 4.9656 13.0254 4.88623V0.724266C13.0254 0.644893 13.0569 0.56877 13.113 0.512644C13.1691 0.456519 13.2453 0.424988 13.3246 0.424988C13.404 0.424988 13.4801 0.456519 13.5362 0.512644C13.5923 0.56877 13.6238 0.644893 13.6238 0.724266V4.59094H17.4908C17.5702 4.59094 17.6463 4.62247 17.7024 4.6786C17.7585 4.73472 17.7901 4.81085 17.7901 4.89022C17.7901 4.96959 17.7585 5.04572 17.7024 5.10184C17.6463 5.15797 17.5702 5.1895 17.4908 5.1895L17.4879 5.18551Z" fill="#AAB0BB"/>
<path d="M17.4891 5.18523C17.4493 5.18557 17.4099 5.17768 17.3734 5.16206C17.3368 5.14644 17.3039 5.12342 17.2766 5.09445L13.1124 0.819759C13.057 0.762985 13.0264 0.686547 13.0274 0.607236C13.0283 0.527926 13.0607 0.45223 13.1174 0.396778C13.1456 0.369116 13.179 0.347314 13.2157 0.332632C13.2524 0.317949 13.2916 0.310676 13.3311 0.311233C13.3706 0.311789 13.4096 0.320164 13.4458 0.335874C13.4821 0.351584 13.5149 0.374318 13.5423 0.402764L17.7015 4.68145C17.7292 4.70917 17.751 4.74214 17.7657 4.77842C17.7804 4.81471 17.7876 4.85356 17.7871 4.8927C17.7865 4.93184 17.7781 4.97048 17.7624 5.00633C17.7467 5.04217 17.724 5.07451 17.6955 5.10143C17.6687 5.12891 17.6366 5.15061 17.6011 5.16519C17.5656 5.17977 17.5275 5.18693 17.4891 5.18623V5.18523Z" fill="#AAB0BB"/>
</g>
</svg>
