<svg width="32" height="28" viewBox="0 0 32 28" fill="none" xmlns="http://www.w3.org/2000/svg">
<path d="M27.9554 17.9743C27.0993 20.6321 25.3802 22.9281 23.0707 24.4981C20.7613 26.068 17.9937 26.8221 15.207 26.6407C12.4203 26.4593 9.77386 25.3528 7.68749 23.4967C5.60113 21.6406 4.19423 19.1412 3.68994 16.3948" stroke="#8C857D" stroke-width="0.97" stroke-miterlimit="10"/>
<path d="M3.77979 11.3665C4.42159 8.5572 6.01174 6.05479 8.28258 4.28044C10.5534 2.50609 13.3663 1.56814 16.2477 1.62447C19.1291 1.6808 21.9032 2.72797 24.1029 4.58972C26.3026 6.45147 27.7937 9.01412 28.3252 11.8463" stroke="#8C857D" stroke-width="0.97" stroke-miterlimit="10"/>
<path d="M0.849854 8.89697L2.79985 12.206" stroke="#8C857D" stroke-width="0.81" stroke-miterlimit="10" stroke-linecap="round"/>
<path d="M7.6098 10.647L4.28979 12.597" stroke="#8C857D" stroke-width="0.81" stroke-miterlimit="10" stroke-linecap="round"/>
<path d="M30.8455 20.3637L28.8955 17.0547" stroke="#8C857D" stroke-width="0.81" stroke-miterlimit="10" stroke-linecap="round"/>
<path d="M24.0754 18.6148L27.3954 16.6748" stroke="#8C857D" stroke-width="0.81" stroke-miterlimit="10" stroke-linecap="round"/>
</svg>
