<svg width="44" height="52" viewBox="0 0 44 52" fill="none" xmlns="http://www.w3.org/2000/svg">
<path d="M1.4 36.2C1.3 38.6 1.9 41 3.1 43.2C3.3 43.5 3.7 43.5 3.8 43.1C6.3 35.6 10.5 28.9 15.9 23.4C16.2 23.1 16 22.5 15.5 22.5C14.9 22.5 14.2 22.5 13.6 22.6C13.5 22.6 13.4 22.6 13.3 22.6C12.8 22.7 12.3 22.8 11.8 22.9C11.3 23 10.8 22.7 10.8 22.1L10.6 1.80002C10.6 1.30002 10.3 0.800018 9.6 0.800018H1.9C1.4 0.800018 1 1.10002 1 1.60002V1.70002L1.4 33.4C1.5 34.4 1.4 35.3 1.4 36.2ZM24.1 26.7C17.6 32.5 12.6 40 9.8 48.6C9.6 49.1 9.9 49.6 10.4 49.8C12.1 50.5 14 50.8 15.9 50.8C23.4 50.6 29.6 44.2 29.6 36.8C29.6 32.9 28 29.4 25.5 26.8C25.1 26.4 24.5 26.4 24.1 26.7Z" fill="#F47E0B"/>
<path d="M37.6 7.00001L35 1.40001C34.8 1.10001 34.5 0.800012 34.1 0.800012L24.5 0.700012C24.1 0.700012 23.7 0.900012 23.6 1.30001L16.3 16.8C16 17.5 16.5 18.2 17.2 18.2H19C19.2 18.2 19.5 18.1 19.6 18C24.7 13.8 30.6 10.5 37 8.30001C37.6 8.20001 37.9 7.50001 37.6 7.00001ZM34.1 18.3H41.3C42 18.3 42.5 17.5 42.2 16.9L41.4 15.3C41.2 14.8 40.6 14.6 40.1 14.8C37.9 15.7 35.9 16.6 33.9 17.8C33.7 17.8 33.8 18.3 34.1 18.3Z" fill="#F47E0B"/>
</svg>
