<svg width="161" height="161" viewBox="0 0 161 161" fill="none" xmlns="http://www.w3.org/2000/svg">
<path d="M60.3508 0.750504H0.497559V60.6142H60.3508V0.750504ZM50.3686 50.6302H10.4837V10.7384H50.3686V50.6302Z" fill="#444444"/>
<path d="M40.3902 20.7253H20.4688V40.6503H40.3902V20.7253Z" fill="#444444"/>
<path d="M0.497559 160.366H60.3508V100.502H0.497559V160.366ZM10.4837 110.486H50.3686V150.382H10.4837V110.486Z" fill="#444444"/>
<path d="M40.3902 120.478H20.4688V140.403H40.3902V120.478Z" fill="#444444"/>
<path d="M100.232 0.750504V60.6142H160.085V0.750504H100.232ZM150.103 50.6302H110.218V10.7384H150.103V50.6302Z" fill="#444444"/>
<path d="M140.126 20.7253H120.204V40.6503H140.126V20.7253Z" fill="#444444"/>
<path d="M20.4689 70.6001H0.497559V90.5151H30.3933V80.5271H20.4689V70.6001Z" fill="#444444"/>
<path d="M90.2584 90.5141H70.3369V110.489H90.2584V90.5141Z" fill="#444444"/>
<path d="M50.3644 70.6021H30.3931V80.5401H50.3644V70.6021Z" fill="#444444"/>
<path d="M90.2465 120.476H70.335V130.401H80.2583V140.391H90.2465V120.476Z" fill="#444444"/>
<path d="M60.3509 70.6001V80.5251H50.3647V90.5151H70.3361V70.6001H60.3509Z" fill="#444444"/>
<path d="M90.2464 40.6383H80.2603V60.6132H90.2464V40.6383Z" fill="#444444"/>
<path d="M90.2464 80.5271V90.5151H110.218V70.6001H80.2622V80.5251H90.2464V80.5271Z" fill="#444444"/>
<path d="M80.2732 60.6142H70.3369V70.6021H80.2732V60.6142Z" fill="#444444"/>
<path d="M110.217 140.391H90.2456V160.366H110.217V140.391Z" fill="#444444"/>
<path d="M80.2732 140.391H70.3369V160.366H80.2732V140.391Z" fill="#444444"/>
<path d="M100.232 110.49H90.2456V120.478H100.232V110.49Z" fill="#444444"/>
<path d="M90.2465 30.6514V10.7384H80.2603V0.750504H70.335V40.6383H80.2583V30.6514H90.2465Z" fill="#444444"/>
<path d="M130.14 140.391H120.204V160.366H130.14V140.391Z" fill="#444444"/>
<path d="M140.126 120.478H120.204V130.416H140.126V120.478Z" fill="#444444"/>
<path d="M120.204 130.403H110.218V140.391H120.204V130.403Z" fill="#444444"/>
<path d="M110.218 120.478H100.232V130.416H110.218V120.478Z" fill="#444444"/>
<path d="M140.115 100.502V110.49H150.1V120.477H160.085V100.502H140.115Z" fill="#444444"/>
<path d="M150.1 130.405H140.115V160.366H160.085V140.391H150.1V130.405Z" fill="#444444"/>
<path d="M100.232 100.502V110.489H130.128V90.5151H110.218V100.502H100.232Z" fill="#444444"/>
<path d="M120.202 70.6001V80.5251H140.114V90.5151H160.085V70.6001H120.202Z" fill="#444444"/>
</svg>
