<svg width="23" height="22" viewBox="0 0 23 22" fill="none" xmlns="http://www.w3.org/2000/svg">
<path fill-rule="evenodd" clip-rule="evenodd" d="M12.8386 7.21767C13.0903 7.52885 13.239 7.91059 13.2641 8.31001C13.2891 8.70943 13.1894 9.10677 12.9786 9.44698C12.8623 9.63814 12.7211 9.81296 12.5587 9.96683L11.9688 10.5466C11.5043 10.9526 11.1326 11.4538 10.879 12.0162C10.6925 12.5592 10.6077 13.1319 10.629 13.7057H11.9288C11.9107 13.2301 11.9819 12.7554 12.1387 12.3061C12.3738 11.8735 12.6815 11.4846 13.0486 11.1565C13.5206 10.7415 13.9524 10.2829 14.3383 9.78688C14.5634 9.40629 14.6744 8.9691 14.6583 8.52727C14.6715 8.13407 14.6007 7.74257 14.4507 7.37885C14.3007 7.01513 14.075 6.68755 13.7884 6.41791C13.1568 5.8509 12.3267 5.55628 11.4789 5.59816C11.0226 5.57852 10.5676 5.65768 10.1448 5.83022C9.72199 6.00276 9.34149 6.26462 9.02932 6.59786C8.411 7.29533 8.08829 8.20595 8.12949 9.13708H9.43924C9.43084 8.63767 9.53328 8.1426 9.73919 7.68752C9.88516 7.3684 10.1253 7.10158 10.4273 6.92288C10.7294 6.74418 11.0789 6.66216 11.4289 6.68783C11.6887 6.66267 11.9509 6.69734 12.1952 6.78918C12.4396 6.88102 12.6597 7.0276 12.8386 7.21767Z" fill="#73695E"/>
<path fill-rule="evenodd" clip-rule="evenodd" d="M22.3367 10.9966C22.3367 8.82171 21.6917 6.69562 20.4832 4.88723C19.2748 3.07885 17.5571 1.66938 15.5475 0.837074C13.5379 0.00476471 11.3266 -0.213005 9.19318 0.211302C7.05979 0.63561 5.10014 1.68294 3.56205 3.22084C2.02396 4.75875 0.976506 6.71816 0.552148 8.8513C0.127789 10.9844 0.345586 13.1955 1.17799 15.2049C2.0104 17.2142 3.42004 18.9317 5.22864 20.14C7.03725 21.3483 9.16359 21.9933 11.3388 21.9933C14.2556 21.9933 17.053 20.8347 19.1155 18.7724C21.178 16.7102 22.3367 13.9131 22.3367 10.9966ZM1.34064 10.9966C1.34064 9.01943 1.92702 7.08662 3.02563 5.44264C4.12424 3.79865 5.68574 2.51731 7.51266 1.76067C9.33958 1.00403 11.3499 0.806053 13.2893 1.19179C15.2288 1.57752 17.0103 2.52964 18.4085 3.92773C19.8068 5.32583 20.759 7.10711 21.1448 9.04633C21.5306 10.9855 21.3326 12.9956 20.5759 14.8223C19.8191 16.649 18.5376 18.2103 16.8934 19.3088C15.2493 20.4073 13.3162 20.9936 11.3388 20.9936C8.68711 20.9936 6.14404 19.9403 4.26903 18.0655C2.39401 16.1907 1.34064 13.648 1.34064 10.9966Z" fill="#73695E"/>
<path d="M11.9088 14.8254H10.7388V16.0554H11.9088V14.8254Z" fill="#6B6B6B"/>
</svg>
