<svg width="23" height="23" viewBox="0 0 23 23" fill="none" xmlns="http://www.w3.org/2000/svg">
<path d="M19.1653 4.1758C18.1438 3.1655 16.931 2.36405 15.5961 1.81725C14.2611 1.27045 12.8303 0.989014 11.3853 0.989014C9.94036 0.989014 8.50954 1.27045 7.17462 1.81725C5.8397 2.36405 4.62684 3.1655 3.60533 4.1758C1.55445 6.21797 0.406018 8.98049 0.411642 11.8581C0.417265 14.7358 1.57648 17.4939 3.63533 19.5282C5.69715 21.5596 8.4894 22.7002 11.4003 22.7002C14.3113 22.7002 17.1035 21.5596 19.1653 19.5282C21.2202 17.49 22.374 14.7297 22.374 11.852C22.374 8.97436 21.2202 6.21404 19.1653 4.1758ZM11.4153 21.5053C9.49831 21.4975 7.62652 20.9289 6.03586 19.8712C4.4452 18.8134 3.20685 17.3139 2.47689 15.5615C1.74692 13.8092 1.55801 11.8824 1.93394 10.0241C2.30988 8.16576 3.23385 6.45902 4.5894 5.11897C5.94496 3.77891 7.67144 2.86551 9.55126 2.49388C11.4311 2.12224 13.3801 2.30899 15.1528 3.03061C16.9254 3.75223 18.4423 4.97641 19.5123 6.54888C20.5822 8.12135 21.1574 9.97173 21.1653 11.8668C21.168 13.1333 20.9176 14.3878 20.4285 15.5584C19.9395 16.729 19.2214 17.7926 18.3155 18.6881C17.4096 19.5836 16.3337 20.2935 15.1496 20.777C13.9655 21.2604 12.6965 21.5079 11.4153 21.5053Z" fill="#73695E"/>
<path d="M12.1052 11.2341H10.7252C10.346 11.2341 9.98224 11.0851 9.71406 10.82C9.44589 10.5549 9.29523 10.1954 9.29523 9.82049C9.29523 9.44559 9.44589 9.08605 9.71406 8.82096C9.98224 8.55586 10.346 8.40693 10.7252 8.40693H13.4852C13.5767 8.41821 13.6695 8.41014 13.7575 8.38325C13.8456 8.35637 13.9268 8.31128 13.9959 8.25099C14.065 8.19069 14.1203 8.11657 14.1582 8.03353C14.1961 7.95049 14.2157 7.86044 14.2157 7.76935C14.2157 7.67826 14.1961 7.5882 14.1582 7.50517C14.1203 7.42213 14.065 7.34801 13.9959 7.28771C13.9268 7.22742 13.8456 7.18233 13.7575 7.15545C13.6695 7.12856 13.5767 7.12049 13.4852 7.13176H12.0552V5.68855C12.0552 5.60547 12.0387 5.5232 12.0065 5.44645C11.9743 5.36969 11.9272 5.29995 11.8678 5.2412C11.8083 5.18246 11.7378 5.13586 11.6601 5.10407C11.5825 5.07227 11.4993 5.05591 11.4152 5.05591C11.3312 5.05591 11.248 5.07227 11.1703 5.10407C11.0927 5.13586 11.0221 5.18246 10.9627 5.2412C10.9032 5.29995 10.8561 5.36969 10.8239 5.44645C10.7918 5.5232 10.7752 5.60547 10.7752 5.68855V7.13176C10.4048 7.10953 10.0337 7.16246 9.68481 7.28728C9.33588 7.4121 9.01647 7.60617 8.74624 7.85757C8.47602 8.10896 8.26068 8.41235 8.1135 8.74908C7.96631 9.0858 7.89038 9.44874 7.89038 9.81555C7.89038 10.1824 7.96631 10.5453 8.1135 10.882C8.26068 11.2187 8.47602 11.5221 8.74624 11.7735C9.01647 12.0249 9.33588 12.219 9.68481 12.3438C10.0337 12.4686 10.4048 12.5216 10.7752 12.4993H12.1552C12.5345 12.4993 12.8982 12.6483 13.1664 12.9134C13.4346 13.1785 13.5852 13.538 13.5852 13.9129C13.5852 14.2878 13.4346 14.6473 13.1664 14.9124C12.8982 15.1775 12.5345 15.3265 12.1552 15.3265H9.34523C9.25378 15.3152 9.16096 15.3233 9.07291 15.3501C8.98486 15.377 8.90361 15.4221 8.83453 15.4824C8.76545 15.5427 8.71013 15.6168 8.67224 15.6999C8.63436 15.7829 8.61476 15.8729 8.61476 15.964C8.61476 16.0551 8.63436 16.1452 8.67224 16.2282C8.71013 16.3113 8.76545 16.3854 8.83453 16.4457C8.90361 16.506 8.98486 16.5511 9.07291 16.5779C9.16096 16.6048 9.25378 16.6129 9.34523 16.6016H10.7752V18.0053C10.7752 18.0884 10.7918 18.1706 10.8239 18.2474C10.8561 18.3242 10.9032 18.3939 10.9627 18.4526C11.0221 18.5114 11.0927 18.558 11.1703 18.5898C11.248 18.6216 11.3312 18.6379 11.4152 18.6379C11.4993 18.6379 11.5825 18.6216 11.6601 18.5898C11.7378 18.558 11.8083 18.5114 11.8678 18.4526C11.9272 18.3939 11.9743 18.3242 12.0065 18.2474C12.0387 18.1706 12.0552 18.0884 12.0552 18.0053V16.5621C12.4256 16.5843 12.7967 16.5314 13.1456 16.4066C13.4946 16.2818 13.814 16.0877 14.0842 15.8363C14.3544 15.5849 14.5698 15.2815 14.7169 14.9448C14.8641 14.608 14.9401 14.2451 14.9401 13.8783C14.9401 13.5115 14.8641 13.1485 14.7169 12.8118C14.5698 12.4751 14.3544 12.1717 14.0842 11.9203C13.814 11.6689 13.4946 11.4748 13.1456 11.35C12.7967 11.2252 12.4256 11.1723 12.0552 11.1945L12.1052 11.2341Z" fill="#73695E"/>
</svg>
